<?xml version="1.0" encoding="UTF-8"?>
<!DOCTYPE svg PUBLIC "-//W3C//DTD SVG 1.1//EN" "http://www.w3.org/Graphics/SVG/1.1/DTD/svg11.dtd">
<svg version="1.1" id="Layer_1" xmlns="http://www.w3.org/2000/svg" xmlns:xlink="http://www.w3.org/1999/xlink" width="600" height="600" viewBox="0 0 600 600" overflow="visible" enable-background="new 0 0 600 600" xml:space="preserve">
<polyline fill="none" stroke="#015353" stroke-width="2.2677" stroke-miterlimit="10" points="253.314,576.851 253.314,576.851  283.713,556.687 "/>
<polyline fill="none" stroke="#015353" stroke-width="2.2677" stroke-miterlimit="10" points="484.953,413.308 484.953,413.308  512.156,459.945 "/>
<polyline fill="none" stroke="#015353" stroke-width="2.2677" stroke-miterlimit="10" points="484.953,413.308 484.953,413.308  523.934,395.367 "/>
<polyline fill="none" stroke="#015353" stroke-width="2.2677" stroke-miterlimit="10" points="225.984,472.824 225.984,472.824  302.816,498.628 "/>
<polyline fill="none" stroke="#015353" stroke-width="2.2677" stroke-miterlimit="10" points="225.984,472.824 225.984,472.824  271.77,432.753 "/>
<polyline fill="none" stroke="#015353" stroke-width="2.2677" stroke-miterlimit="10" points="338.008,490.953 338.008,490.953  373.883,544.093 "/>
<polyline fill="none" stroke="#015353" stroke-width="2.2677" stroke-miterlimit="10" points="338.008,490.953 338.008,490.953  358.672,476.062 "/>
<polyline fill="none" stroke="#015353" stroke-width="2.2677" stroke-miterlimit="10" points="87.572,337.171 87.572,337.171  149,285.774 "/>
<polyline fill="none" stroke="#015353" stroke-width="2.2677" stroke-miterlimit="10" points="87.572,337.171 87.572,337.171  109.838,419.175 "/>
<polyline fill="none" stroke="#015353" stroke-width="2.2677" stroke-miterlimit="10" points="87.572,337.171 87.572,337.171  158.252,348.332 "/>
<polyline fill="none" stroke="#015353" stroke-width="2.2677" stroke-miterlimit="10" points="87.572,337.171 87.572,337.171  144.863,372.785 "/>
<polyline fill="none" stroke="#015353" stroke-width="2.2677" stroke-miterlimit="10" points="330.758,381.414 330.758,381.414  409.371,398.386 "/>
<polyline fill="none" stroke="#015353" stroke-width="2.2677" stroke-miterlimit="10" points="330.758,381.414 330.758,381.414  405.98,354.828 "/>
<polyline fill="none" stroke="#015353" stroke-width="2.2677" stroke-miterlimit="10" points="330.758,381.414 330.758,381.414  358.672,476.062 "/>
<polyline fill="none" stroke="#015353" stroke-width="2.2677" stroke-miterlimit="10" points="560.277,530.859 560.277,530.859  565.5,451.859 "/>
<polyline fill="none" stroke="#015353" stroke-width="2.2677" stroke-miterlimit="10" points="302.816,498.628 302.816,498.628  338.008,490.953 "/>
<polyline fill="none" stroke="#015353" stroke-width="2.2677" stroke-miterlimit="10" points="424.723,474.917 424.723,474.917  474.703,450.914 "/>
<polyline fill="none" stroke="#015353" stroke-width="2.2677" stroke-miterlimit="10" points="424.723,474.917 424.723,474.917  458.086,496.667 "/>
<polyline fill="none" stroke="#015353" stroke-width="2.2677" stroke-miterlimit="10" points="210.762,569.281 210.762,569.281  253.314,576.851 "/>
<polyline fill="none" stroke="#015353" stroke-width="2.2677" stroke-miterlimit="10" points="210.762,569.281 210.762,569.281  225.984,472.824 "/>
<polyline fill="none" stroke="#015353" stroke-width="2.2677" stroke-miterlimit="10" points="209.604,34.122 209.604,34.122  255.701,42.599 "/>
<polyline fill="none" stroke="#015353" stroke-width="2.2677" stroke-miterlimit="10" points="209.604,34.122 209.604,34.122  212.752,60.479 "/>
<polyline fill="none" stroke="#015353" stroke-width="2.2677" stroke-miterlimit="10" points="572.031,160.521 572.031,160.521  574.578,110.815 "/>
<polyline fill="none" stroke="#015353" stroke-width="2.2677" stroke-miterlimit="10" points="19.08,49.567 19.08,49.567  37.148,159.552 "/>
<polyline fill="none" stroke="#015353" stroke-width="2.2677" stroke-miterlimit="10" points="19.08,49.567 19.08,49.567  115.832,49.661 "/>
<polyline fill="none" stroke="#015353" stroke-width="2.2677" stroke-miterlimit="10" points="510.785,145.608 510.785,145.608  572.031,160.521 "/>
<polyline fill="none" stroke="#015353" stroke-width="2.2677" stroke-miterlimit="10" points="510.785,145.608 510.785,145.608  574.578,110.815 "/>
<polyline fill="none" stroke="#015353" stroke-width="2.2677" stroke-miterlimit="10" points="510.785,145.608 510.785,145.608  535.062,66.56 "/>
<polyline fill="none" stroke="#015353" stroke-width="2.2677" stroke-miterlimit="10" points="510.785,145.608 510.785,145.608  526.582,189.271 "/>
<polyline fill="none" stroke="#015353" stroke-width="2.2677" stroke-miterlimit="10" points="118.529,526.207 118.529,526.207  131.578,506.066 "/>
<polyline fill="none" stroke="#015353" stroke-width="2.2677" stroke-miterlimit="10" points="118.529,526.207 118.529,526.207  167.432,565.976 "/>
<polyline fill="none" stroke="#015353" stroke-width="2.2677" stroke-miterlimit="10" points="252.131,80.579 252.131,80.579  255.701,42.599 "/>
<polyline fill="none" stroke="#015353" stroke-width="2.2677" stroke-miterlimit="10" points="252.131,80.579 252.131,80.579  361.531,129.944 "/>
<polyline fill="none" stroke="#015353" stroke-width="2.2677" stroke-miterlimit="10" points="344.855,165.026 344.855,165.026  361.531,129.944 "/>
<polyline fill="none" stroke="#015353" stroke-width="2.2677" stroke-miterlimit="10" points="344.855,165.026 344.855,165.026  410.219,202.208 "/>
<polyline fill="none" stroke="#015353" stroke-width="2.2677" stroke-miterlimit="10" points="149,285.774 149,285.774  158.252,348.332 "/>
<polyline fill="none" stroke="#015353" stroke-width="2.2677" stroke-miterlimit="10" points="149,285.774 149,285.774  182.838,277.462 "/>
<polyline fill="none" stroke="#015353" stroke-width="2.2677" stroke-miterlimit="10" points="419.293,114.993 419.293,114.993  464.332,144.718 "/>
<polyline fill="none" stroke="#015353" stroke-width="2.2677" stroke-miterlimit="10" points="419.293,114.993 419.293,114.993  507.52,64.468 "/>
<polyline fill="none" stroke="#015353" stroke-width="2.2677" stroke-miterlimit="10" points="474.703,450.914 474.703,450.914  484.953,413.308 "/>
<polyline fill="none" stroke="#015353" stroke-width="2.2677" stroke-miterlimit="10" points="474.703,450.914 474.703,450.914  512.156,459.945 "/>
<polyline fill="none" stroke="#015353" stroke-width="2.2677" stroke-miterlimit="10" points="512.156,459.945 512.156,459.945  560.277,530.859 "/>
<polyline fill="none" stroke="#015353" stroke-width="2.2677" stroke-miterlimit="10" points="512.156,459.945 512.156,459.945  565.5,451.859 "/>
<polyline fill="none" stroke="#015353" stroke-width="2.2677" stroke-miterlimit="10" points="512.156,459.945 512.156,459.945  523.934,395.367 "/>
<polyline fill="none" stroke="#015353" stroke-width="2.2677" stroke-miterlimit="10" points="471.742,267.923 471.742,267.923  527.406,268.712 "/>
<polyline fill="none" stroke="#015353" stroke-width="2.2677" stroke-miterlimit="10" points="122.473,248.917 122.473,248.917  149,285.774 "/>
<polyline fill="none" stroke="#015353" stroke-width="2.2677" stroke-miterlimit="10" points="122.473,248.917 122.473,248.917  131.426,227.942 "/>
<polyline fill="none" stroke="#015353" stroke-width="2.2677" stroke-miterlimit="10" points="310.926,39.122 310.926,39.122  361.531,129.944 "/>
<polyline fill="none" stroke="#015353" stroke-width="2.2677" stroke-miterlimit="10" points="310.926,39.122 310.926,39.122  392.742,90.505 "/>
<polyline fill="none" stroke="#015353" stroke-width="2.2677" stroke-miterlimit="10" points="40.67,489.562 40.67,489.562  73.596,498.417 "/>
<polyline fill="none" stroke="#015353" stroke-width="2.2677" stroke-miterlimit="10" points="40.67,489.562 40.67,489.562  49.277,520.355 "/>
<polyline fill="none" stroke="#015353" stroke-width="2.2677" stroke-miterlimit="10" points="40.67,489.562 40.67,489.562  50.508,457.863 "/>
<polyline fill="none" stroke="#015353" stroke-width="2.2677" stroke-miterlimit="10" points="574.578,110.815 574.578,110.815  580.992,60.718 "/>
<polyline fill="none" stroke="#015353" stroke-width="2.2677" stroke-miterlimit="10" points="102.314,452.726 102.314,452.726  109.838,419.175 "/>
<polyline fill="none" stroke="#015353" stroke-width="2.2677" stroke-miterlimit="10" points="102.314,452.726 102.314,452.726  131.578,506.066 "/>
<polyline fill="none" stroke="#015353" stroke-width="2.2677" stroke-miterlimit="10" points="102.314,452.726 102.314,452.726  192.217,459.882 "/>
<polyline fill="none" stroke="#015353" stroke-width="2.2677" stroke-miterlimit="10" points="420.59,538.078 420.59,538.078  424.723,474.917 "/>
<polyline fill="none" stroke="#015353" stroke-width="2.2677" stroke-miterlimit="10" points="420.59,538.078 420.59,538.078  461.684,559.683 "/>
<polyline fill="none" stroke="#015353" stroke-width="2.2677" stroke-miterlimit="10" points="420.59,538.078 420.59,538.078  458.086,496.667 "/>
<polyline fill="none" stroke="#015353" stroke-width="2.2677" stroke-miterlimit="10" points="464.332,144.718 464.332,144.718  510.785,145.608 "/>
<polyline fill="none" stroke="#015353" stroke-width="2.2677" stroke-miterlimit="10" points="464.332,144.718 464.332,144.718  507.52,64.468 "/>
<polyline fill="none" stroke="#015353" stroke-width="2.2677" stroke-miterlimit="10" points="464.332,144.718 464.332,144.718  469.52,225.954 "/>
<polyline fill="none" stroke="#015353" stroke-width="2.2677" stroke-miterlimit="10" points="225.611,197.839 225.611,197.839  247.373,134.485 "/>
<polyline fill="none" stroke="#015353" stroke-width="2.2677" stroke-miterlimit="10" points="225.611,197.839 225.611,197.839  310.047,257.173 "/>
<polyline fill="none" stroke="#015353" stroke-width="2.2677" stroke-miterlimit="10" points="225.611,197.839 225.611,197.839  309.949,174.142 "/>
<polyline fill="none" stroke="#015353" stroke-width="2.2677" stroke-miterlimit="10" points="448.699,310.05 448.699,310.05  471.742,267.923 "/>
<polyline fill="none" stroke="#015353" stroke-width="2.2677" stroke-miterlimit="10" points="448.699,310.05 448.699,310.05  465.738,389.277 "/>
<polyline fill="none" stroke="#015353" stroke-width="2.2677" stroke-miterlimit="10" points="52.002,227.659 52.002,227.659  88.248,262.091 "/>
<polyline fill="none" stroke="#015353" stroke-width="2.2677" stroke-miterlimit="10" points="52.002,227.659 52.002,227.659  107.484,167.427 "/>
<polyline fill="none" stroke="#015353" stroke-width="2.2677" stroke-miterlimit="10" points="201.805,236.739 201.805,236.739  225.611,197.839 "/>
<polyline fill="none" stroke="#015353" stroke-width="2.2677" stroke-miterlimit="10" points="201.805,236.739 201.805,236.739  249.639,285.552 "/>
<polyline fill="none" stroke="#015353" stroke-width="2.2677" stroke-miterlimit="10" points="255.701,42.599 255.701,42.599  310.926,39.122 "/>
<polyline fill="none" stroke="#015353" stroke-width="2.2677" stroke-miterlimit="10" points="131.41,146.729 131.41,146.729  155.037,84.585 "/>
<polyline fill="none" stroke="#015353" stroke-width="2.2677" stroke-miterlimit="10" points="131.41,146.729 131.41,146.729  178.191,97.167 "/>
<polyline fill="none" stroke="#015353" stroke-width="2.2677" stroke-miterlimit="10" points="131.41,146.729 131.41,146.729  194.695,128.71 "/>
<polyline fill="none" stroke="#015353" stroke-width="2.2677" stroke-miterlimit="10" points="413.156,267.085 413.156,267.085  471.742,267.923 "/>
<polyline fill="none" stroke="#015353" stroke-width="2.2677" stroke-miterlimit="10" points="413.156,267.085 413.156,267.085  448.699,310.05 "/>
<polyline fill="none" stroke="#015353" stroke-width="2.2677" stroke-miterlimit="10" points="413.156,267.085 413.156,267.085  469.52,225.954 "/>
<polyline fill="none" stroke="#015353" stroke-width="2.2677" stroke-miterlimit="10" points="109.838,419.175 109.838,419.175  192.217,459.882 "/>
<polyline fill="none" stroke="#015353" stroke-width="2.2677" stroke-miterlimit="10" points="109.838,419.175 109.838,419.175  144.863,372.785 "/>
<polyline fill="none" stroke="#015353" stroke-width="2.2677" stroke-miterlimit="10" points="321.629,288.032 321.629,288.032  330.758,381.414 "/>
<polyline fill="none" stroke="#015353" stroke-width="2.2677" stroke-miterlimit="10" points="321.629,288.032 321.629,288.032  402.598,288.796 "/>
<polyline fill="none" stroke="#015353" stroke-width="2.2677" stroke-miterlimit="10" points="321.629,288.032 321.629,288.032  400.449,227.944 "/>
<polyline fill="none" stroke="#015353" stroke-width="2.2677" stroke-miterlimit="10" points="19.01,580.812 19.01,580.812  49.277,520.355 "/>
<polyline fill="none" stroke="#015353" stroke-width="2.2677" stroke-miterlimit="10" points="19.01,580.812 19.01,580.812  78.604,565.535 "/>
<polyline fill="none" stroke="#015353" stroke-width="2.2677" stroke-miterlimit="10" points="361.531,129.944 361.531,129.944  419.293,114.993 "/>
<polyline fill="none" stroke="#015353" stroke-width="2.2677" stroke-miterlimit="10" points="361.531,129.944 361.531,129.944  392.742,90.505 "/>
<polyline fill="none" stroke="#015353" stroke-width="2.2677" stroke-miterlimit="10" points="71.475,296.222 71.475,296.222  87.572,337.171 "/>
<polyline fill="none" stroke="#015353" stroke-width="2.2677" stroke-miterlimit="10" points="71.475,296.222 71.475,296.222  88.248,262.091 "/>
<polyline fill="none" stroke="#015353" stroke-width="2.2677" stroke-miterlimit="10" points="247.373,134.485 247.373,134.485  252.131,80.579 "/>
<polyline fill="none" stroke="#015353" stroke-width="2.2677" stroke-miterlimit="10" points="247.373,134.485 247.373,134.485  309.949,174.142 "/>
<polyline fill="none" stroke="#015353" stroke-width="2.2677" stroke-miterlimit="10" points="155.037,84.585 155.037,84.585  178.191,97.167 "/>
<polyline fill="none" stroke="#015353" stroke-width="2.2677" stroke-miterlimit="10" points="32.584,395.265 32.584,395.265  59.914,412.058 "/>
<polyline fill="none" stroke="#015353" stroke-width="2.2677" stroke-miterlimit="10" points="32.584,395.265 32.584,395.265  33.064,357.148 "/>
<polyline fill="none" stroke="#015353" stroke-width="2.2677" stroke-miterlimit="10" points="402.598,288.796 402.598,288.796  448.699,310.05 "/>
<polyline fill="none" stroke="#015353" stroke-width="2.2677" stroke-miterlimit="10" points="402.598,288.796 402.598,288.796  413.156,267.085 "/>
<polyline fill="none" stroke="#015353" stroke-width="2.2677" stroke-miterlimit="10" points="402.598,288.796 402.598,288.796  405.98,354.828 "/>
<polyline fill="none" stroke="#015353" stroke-width="2.2677" stroke-miterlimit="10" points="158.252,348.332 158.252,348.332  225.74,356.015 "/>
<polyline fill="none" stroke="#015353" stroke-width="2.2677" stroke-miterlimit="10" points="409.371,398.386 409.371,398.386  424.723,474.917 "/>
<polyline fill="none" stroke="#015353" stroke-width="2.2677" stroke-miterlimit="10" points="409.371,398.386 409.371,398.386  474.703,450.914 "/>
<polyline fill="none" stroke="#015353" stroke-width="2.2677" stroke-miterlimit="10" points="409.371,398.386 409.371,398.386  465.738,389.277 "/>
<polyline fill="none" stroke="#015353" stroke-width="2.2677" stroke-miterlimit="10" points="55.506,321.542 55.506,321.542  87.572,337.171 "/>
<polyline fill="none" stroke="#015353" stroke-width="2.2677" stroke-miterlimit="10" points="55.506,321.542 55.506,321.542  71.475,296.222 "/>
<polyline fill="none" stroke="#015353" stroke-width="2.2677" stroke-miterlimit="10" points="131.578,506.066 131.578,506.066  192.217,459.882 "/>
<polyline fill="none" stroke="#015353" stroke-width="2.2677" stroke-miterlimit="10" points="523.934,395.367 523.934,395.367  571.941,348.976 "/>
<polyline fill="none" stroke="#015353" stroke-width="2.2677" stroke-miterlimit="10" points="523.934,395.367 523.934,395.367  565.5,451.859 "/>
<polyline fill="none" stroke="#015353" stroke-width="2.2677" stroke-miterlimit="10" points="182.838,277.462 182.838,277.462  201.805,236.739 "/>
<polyline fill="none" stroke="#015353" stroke-width="2.2677" stroke-miterlimit="10" points="182.838,277.462 182.838,277.462  249.639,285.552 "/>
<polyline fill="none" stroke="#015353" stroke-width="2.2677" stroke-miterlimit="10" points="182.838,277.462 182.838,277.462  225.74,356.015 "/>
<polyline fill="none" stroke="#015353" stroke-width="2.2677" stroke-miterlimit="10" points="410.219,202.208 410.219,202.208  419.293,114.993 "/>
<polyline fill="none" stroke="#015353" stroke-width="2.2677" stroke-miterlimit="10" points="410.219,202.208 410.219,202.208  464.332,144.718 "/>
<polyline fill="none" stroke="#015353" stroke-width="2.2677" stroke-miterlimit="10" points="410.219,202.208 410.219,202.208  469.52,225.954 "/>
<polyline fill="none" stroke="#015353" stroke-width="2.2677" stroke-miterlimit="10" points="259.129,376.277 259.129,376.277  330.758,381.414 "/>
<polyline fill="none" stroke="#015353" stroke-width="2.2677" stroke-miterlimit="10" points="259.129,376.277 259.129,376.277  321.629,288.032 "/>
<polyline fill="none" stroke="#015353" stroke-width="2.2677" stroke-miterlimit="10" points="259.129,376.277 259.129,376.277  271.77,432.753 "/>
<polyline fill="none" stroke="#015353" stroke-width="2.2677" stroke-miterlimit="10" points="310.047,257.173 310.047,257.173  321.629,288.032 "/>
<polyline fill="none" stroke="#015353" stroke-width="2.2677" stroke-miterlimit="10" points="310.047,257.173 310.047,257.173  328.633,209.976 "/>
<polyline fill="none" stroke="#015353" stroke-width="2.2677" stroke-miterlimit="10" points="373.883,544.093 373.883,544.093  420.59,538.078 "/>
<polyline fill="none" stroke="#015353" stroke-width="2.2677" stroke-miterlimit="10" points="373.883,544.093 373.883,544.093  390.176,572.957 "/>
<polyline fill="none" stroke="#015353" stroke-width="2.2677" stroke-miterlimit="10" points="37.148,159.552 37.148,159.552  52.002,227.659 "/>
<polyline fill="none" stroke="#015353" stroke-width="2.2677" stroke-miterlimit="10" points="37.148,159.552 37.148,159.552  115.832,49.661 "/>
<polyline fill="none" stroke="#015353" stroke-width="2.2677" stroke-miterlimit="10" points="37.148,159.552 37.148,159.552  107.484,167.427 "/>
<polyline fill="none" stroke="#015353" stroke-width="2.2677" stroke-miterlimit="10" points="405.98,354.828 405.98,354.828  448.699,310.05 "/>
<polyline fill="none" stroke="#015353" stroke-width="2.2677" stroke-miterlimit="10" points="405.98,354.828 405.98,354.828  409.371,398.386 "/>
<polyline fill="none" stroke="#015353" stroke-width="2.2677" stroke-miterlimit="10" points="405.98,354.828 405.98,354.828  465.738,389.277 "/>
<polyline fill="none" stroke="#015353" stroke-width="2.2677" stroke-miterlimit="10" points="271.77,432.753 271.77,432.753  330.758,381.414 "/>
<polyline fill="none" stroke="#015353" stroke-width="2.2677" stroke-miterlimit="10" points="271.77,432.753 271.77,432.753  302.816,498.628 "/>
<polyline fill="none" stroke="#015353" stroke-width="2.2677" stroke-miterlimit="10" points="167.432,565.976 167.432,565.976  210.762,569.281 "/>
<polyline fill="none" stroke="#015353" stroke-width="2.2677" stroke-miterlimit="10" points="212.752,60.479 212.752,60.479  252.131,80.579 "/>
<polyline fill="none" stroke="#015353" stroke-width="2.2677" stroke-miterlimit="10" points="212.752,60.479 212.752,60.479  255.701,42.599 "/>
<polyline fill="none" stroke="#015353" stroke-width="2.2677" stroke-miterlimit="10" points="212.752,60.479 212.752,60.479  217.547,119.851 "/>
<polyline fill="none" stroke="#015353" stroke-width="2.2677" stroke-miterlimit="10" points="400.449,227.944 400.449,227.944  413.156,267.085 "/>
<polyline fill="none" stroke="#015353" stroke-width="2.2677" stroke-miterlimit="10" points="400.449,227.944 400.449,227.944  410.219,202.208 "/>
<polyline fill="none" stroke="#015353" stroke-width="2.2677" stroke-miterlimit="10" points="400.449,227.944 400.449,227.944  469.52,225.954 "/>
<polyline fill="none" stroke="#015353" stroke-width="2.2677" stroke-miterlimit="10" points="546.566,565.265 546.566,565.265  560.277,530.859 "/>
<polyline fill="none" stroke="#015353" stroke-width="2.2677" stroke-miterlimit="10" points="358.672,476.062 358.672,476.062  424.723,474.917 "/>
<polyline fill="none" stroke="#015353" stroke-width="2.2677" stroke-miterlimit="10" points="358.672,476.062 358.672,476.062  409.371,398.386 "/>
<polyline fill="none" stroke="#015353" stroke-width="2.2677" stroke-miterlimit="10" points="59.914,412.058 59.914,412.058  87.572,337.171 "/>
<polyline fill="none" stroke="#015353" stroke-width="2.2677" stroke-miterlimit="10" points="59.914,412.058 59.914,412.058  86.463,432.238 "/>
<polyline fill="none" stroke="#015353" stroke-width="2.2677" stroke-miterlimit="10" points="461.684,559.683 461.684,559.683  498.605,574.425 "/>
<polyline fill="none" stroke="#015353" stroke-width="2.2677" stroke-miterlimit="10" points="465.738,389.277 465.738,389.277  484.953,413.308 "/>
<polyline fill="none" stroke="#015353" stroke-width="2.2677" stroke-miterlimit="10" points="73.596,498.417 73.596,498.417  118.529,526.207 "/>
<polyline fill="none" stroke="#015353" stroke-width="2.2677" stroke-miterlimit="10" points="73.596,498.417 73.596,498.417  102.314,452.726 "/>
<polyline fill="none" stroke="#015353" stroke-width="2.2677" stroke-miterlimit="10" points="178.191,97.167 178.191,97.167  212.752,60.479 "/>
<polyline fill="none" stroke="#015353" stroke-width="2.2677" stroke-miterlimit="10" points="178.191,97.167 178.191,97.167  194.695,128.71 "/>
<polyline fill="none" stroke="#015353" stroke-width="2.2677" stroke-miterlimit="10" points="328.633,209.976 328.633,209.976  344.855,165.026 "/>
<polyline fill="none" stroke="#015353" stroke-width="2.2677" stroke-miterlimit="10" points="328.633,209.976 328.633,209.976  400.449,227.944 "/>
<polyline fill="none" stroke="#015353" stroke-width="2.2677" stroke-miterlimit="10" points="249.639,285.552 249.639,285.552  321.629,288.032 "/>
<polyline fill="none" stroke="#015353" stroke-width="2.2677" stroke-miterlimit="10" points="249.639,285.552 249.639,285.552  310.047,257.173 "/>
<polyline fill="none" stroke="#015353" stroke-width="2.2677" stroke-miterlimit="10" points="458.086,496.667 458.086,496.667  560.277,530.859 "/>
<polyline fill="none" stroke="#015353" stroke-width="2.2677" stroke-miterlimit="10" points="458.086,496.667 458.086,496.667  474.703,450.914 "/>
<polyline fill="none" stroke="#015353" stroke-width="2.2677" stroke-miterlimit="10" points="458.086,496.667 458.086,496.667  461.684,559.683 "/>
<polyline fill="none" stroke="#015353" stroke-width="2.2677" stroke-miterlimit="10" points="392.742,90.505 392.742,90.505  419.293,114.993 "/>
<polyline fill="none" stroke="#015353" stroke-width="2.2677" stroke-miterlimit="10" points="217.547,119.851 217.547,119.851  252.131,80.579 "/>
<polyline fill="none" stroke="#015353" stroke-width="2.2677" stroke-miterlimit="10" points="217.547,119.851 217.547,119.851  247.373,134.485 "/>
<polyline fill="none" stroke="#015353" stroke-width="2.2677" stroke-miterlimit="10" points="390.176,572.957 390.176,572.957  420.59,538.078 "/>
<polyline fill="none" stroke="#015353" stroke-width="2.2677" stroke-miterlimit="10" points="283.713,556.687 283.713,556.687  302.816,498.628 "/>
<polyline fill="none" stroke="#015353" stroke-width="2.2677" stroke-miterlimit="10" points="283.713,556.687 283.713,556.687  373.883,544.093 "/>
<polyline fill="none" stroke="#015353" stroke-width="2.2677" stroke-miterlimit="10" points="194.695,128.71 194.695,128.71  225.611,197.839 "/>
<polyline fill="none" stroke="#015353" stroke-width="2.2677" stroke-miterlimit="10" points="194.695,128.71 194.695,128.71  217.547,119.851 "/>
<polyline fill="none" stroke="#015353" stroke-width="2.2677" stroke-miterlimit="10" points="88.248,262.091 88.248,262.091  122.473,248.917 "/>
<polyline fill="none" stroke="#015353" stroke-width="2.2677" stroke-miterlimit="10" points="49.277,520.355 49.277,520.355  73.596,498.417 "/>
<polyline fill="none" stroke="#015353" stroke-width="2.2677" stroke-miterlimit="10" points="49.277,520.355 49.277,520.355  78.604,565.535 "/>
<polyline fill="none" stroke="#015353" stroke-width="2.2677" stroke-miterlimit="10" points="115.832,49.661 115.832,49.661  155.037,84.585 "/>
<polyline fill="none" stroke="#015353" stroke-width="2.2677" stroke-miterlimit="10" points="115.832,49.661 115.832,49.661  154.143,19.19 "/>
<polyline fill="none" stroke="#015353" stroke-width="2.2677" stroke-miterlimit="10" points="192.217,459.882 192.217,459.882  225.984,472.824 "/>
<polyline fill="none" stroke="#015353" stroke-width="2.2677" stroke-miterlimit="10" points="192.217,459.882 192.217,459.882  225.74,356.015 "/>
<polyline fill="none" stroke="#015353" stroke-width="2.2677" stroke-miterlimit="10" points="50.508,457.863 50.508,457.863  59.914,412.058 "/>
<polyline fill="none" stroke="#015353" stroke-width="2.2677" stroke-miterlimit="10" points="50.508,457.863 50.508,457.863  73.596,498.417 "/>
<polyline fill="none" stroke="#015353" stroke-width="2.2677" stroke-miterlimit="10" points="50.508,457.863 50.508,457.863  86.463,432.238 "/>
<polyline fill="none" stroke="#015353" stroke-width="2.2677" stroke-miterlimit="10" points="154.143,19.19 154.143,19.19  209.604,34.122 "/>
<polyline fill="none" stroke="#015353" stroke-width="2.2677" stroke-miterlimit="10" points="154.143,19.19 154.143,19.19  155.037,84.585 "/>
<polyline fill="none" stroke="#015353" stroke-width="2.2677" stroke-miterlimit="10" points="527.406,268.712 527.406,268.712  571.941,348.976 "/>
<polyline fill="none" stroke="#015353" stroke-width="2.2677" stroke-miterlimit="10" points="527.406,268.712 527.406,268.712  544.852,219.86 "/>
<polyline fill="none" stroke="#015353" stroke-width="2.2677" stroke-miterlimit="10" points="107.484,167.427 107.484,167.427  131.41,146.729 "/>
<polyline fill="none" stroke="#015353" stroke-width="2.2677" stroke-miterlimit="10" points="107.484,167.427 107.484,167.427  131.426,227.942 "/>
<polyline fill="none" stroke="#015353" stroke-width="2.2677" stroke-miterlimit="10" points="498.605,574.425 498.605,574.425  546.566,565.265 "/>
<polyline fill="none" stroke="#015353" stroke-width="2.2677" stroke-miterlimit="10" points="86.463,432.238 86.463,432.238  102.314,452.726 "/>
<polyline fill="none" stroke="#015353" stroke-width="2.2677" stroke-miterlimit="10" points="86.463,432.238 86.463,432.238  109.838,419.175 "/>
<polyline fill="none" stroke="#015353" stroke-width="2.2677" stroke-miterlimit="10" points="144.863,372.785 144.863,372.785  158.252,348.332 "/>
<polyline fill="none" stroke="#015353" stroke-width="2.2677" stroke-miterlimit="10" points="144.863,372.785 144.863,372.785  192.217,459.882 "/>
<polyline fill="none" stroke="#015353" stroke-width="2.2677" stroke-miterlimit="10" points="507.52,64.468 507.52,64.468  510.785,145.608 "/>
<polyline fill="none" stroke="#015353" stroke-width="2.2677" stroke-miterlimit="10" points="507.52,64.468 507.52,64.468  535.062,66.56 "/>
<polyline fill="none" stroke="#015353" stroke-width="2.2677" stroke-miterlimit="10" points="78.604,565.535 78.604,565.535  118.529,526.207 "/>
<polyline fill="none" stroke="#015353" stroke-width="2.2677" stroke-miterlimit="10" points="535.062,66.56 535.062,66.56  574.578,110.815 "/>
<polyline fill="none" stroke="#015353" stroke-width="2.2677" stroke-miterlimit="10" points="535.062,66.56 535.062,66.56  580.992,60.718 "/>
<polyline fill="none" stroke="#015353" stroke-width="2.2677" stroke-miterlimit="10" points="225.74,356.015 225.74,356.015  259.129,376.277 "/>
<polyline fill="none" stroke="#015353" stroke-width="2.2677" stroke-miterlimit="10" points="225.74,356.015 225.74,356.015  249.639,285.552 "/>
<polyline fill="none" stroke="#015353" stroke-width="2.2677" stroke-miterlimit="10" points="469.52,225.954 469.52,225.954  471.742,267.923 "/>
<polyline fill="none" stroke="#015353" stroke-width="2.2677" stroke-miterlimit="10" points="469.52,225.954 469.52,225.954  544.852,219.86 "/>
<polyline fill="none" stroke="#015353" stroke-width="2.2677" stroke-miterlimit="10" points="469.52,225.954 469.52,225.954  526.582,189.271 "/>
<polyline fill="none" stroke="#015353" stroke-width="2.2677" stroke-miterlimit="10" points="309.949,174.142 309.949,174.142  344.855,165.026 "/>
<polyline fill="none" stroke="#015353" stroke-width="2.2677" stroke-miterlimit="10" points="309.949,174.142 309.949,174.142  328.633,209.976 "/>
<polyline fill="none" stroke="#015353" stroke-width="2.2677" stroke-miterlimit="10" points="526.582,189.271 526.582,189.271  572.031,160.521 "/>
<polyline fill="none" stroke="#015353" stroke-width="2.2677" stroke-miterlimit="10" points="526.582,189.271 526.582,189.271  544.852,219.86 "/>
<polyline fill="none" stroke="#015353" stroke-width="2.2677" stroke-miterlimit="10" points="131.426,227.942 131.426,227.942  201.805,236.739 "/>
<polyline fill="none" stroke="#015353" stroke-width="2.2677" stroke-miterlimit="10" points="33.064,357.148 33.064,357.148  55.506,321.542 "/>
<path fill="#FF0000" stroke="#000000" d="M258.984,576.851L258.984,576.851v-0.008c-0.002-1.504-0.602-2.945-1.666-4.004  c-1.064-1.062-2.506-1.66-4.008-1.656c-1.504,0-2.943,0.598-4.006,1.66s-1.658,2.504-1.658,4.008s0.596,2.945,1.658,4.008  s2.502,1.66,4.006,1.66c1.502,0.004,2.943-0.594,4.008-1.652c1.064-1.062,1.664-2.504,1.666-4.004V576.851z"/>
<path fill="#FF0000" stroke="#000000" d="M490.625,413.308L490.625,413.308V413.3c-0.004-1.504-0.602-2.945-1.668-4.004  c-1.062-1.062-2.504-1.656-4.008-1.656s-2.941,0.598-4.004,1.66c-1.062,1.066-1.66,2.508-1.66,4.008c0,1.504,0.598,2.945,1.66,4.008  s2.5,1.66,4.004,1.664c1.504,0,2.945-0.594,4.008-1.656c1.066-1.062,1.664-2.504,1.668-4.004V413.308z"/>
<path fill="#FF0000" stroke="#000000" d="M231.654,472.824L231.654,472.824v-0.008c-0.004-1.504-0.602-2.945-1.666-4.004  c-1.064-1.062-2.506-1.656-4.01-1.656c-1.502,0-2.943,0.598-4.004,1.66c-1.062,1.066-1.66,2.504-1.66,4.008s0.598,2.945,1.66,4.008  c1.061,1.062,2.502,1.66,4.004,1.664c1.504,0,2.945-0.598,4.01-1.656c1.064-1.062,1.662-2.504,1.666-4.004V472.824z"/>
<path fill="#FF0000" stroke="#000000" d="M343.676,490.953L343.676,490.953v-0.012c0-1.504-0.602-2.941-1.664-4.004  c-1.066-1.062-2.508-1.656-4.008-1.656c-1.504,0.004-2.945,0.602-4.008,1.664s-1.656,2.504-1.656,4.008  c0,1.5,0.594,2.941,1.656,4.004c1.062,1.066,2.504,1.664,4.008,1.664c1.5,0,2.941-0.594,4.008-1.656  c1.062-1.059,1.664-2.5,1.664-4.004V490.953z"/>
<path fill="#FF0000" stroke="#000000" d="M93.24,337.171L93.24,337.171v-0.008c-0.002-1.504-0.602-2.945-1.666-4.004  c-1.062-1.062-2.504-1.656-4.008-1.656c-1.502,0-2.943,0.598-4.006,1.66c-1.062,1.066-1.658,2.508-1.658,4.008  c0,1.504,0.596,2.945,1.658,4.008s2.504,1.66,4.006,1.664c1.504,0,2.945-0.594,4.008-1.656c1.064-1.062,1.664-2.5,1.666-4.004  V337.171z"/>
<path fill="#FF0000" stroke="#000000" d="M336.426,381.414L336.426,381.414v-0.012c0-1.5-0.602-2.941-1.664-4.004  c-1.062-1.059-2.504-1.656-4.008-1.656c-1.504,0.004-2.945,0.602-4.008,1.664c-1.059,1.062-1.656,2.504-1.656,4.008  c0,1.5,0.598,2.941,1.656,4.008c1.062,1.062,2.504,1.66,4.008,1.66s2.945-0.594,4.008-1.656c1.062-1.059,1.664-2.5,1.664-4.004  V381.414z"/>
<path fill="#FF0000" stroke="#000000" d="M565.945,530.859L565.945,530.859v-0.008c-0.004-1.504-0.602-2.945-1.664-4.004  c-1.066-1.062-2.508-1.66-4.012-1.656c-1.5,0-2.941,0.598-4.004,1.66s-1.66,2.504-1.66,4.008s0.598,2.945,1.66,4.008  s2.504,1.66,4.004,1.66c1.504,0.004,2.945-0.594,4.012-1.652c1.062-1.062,1.66-2.504,1.664-4.004V530.859z"/>
<path fill="#FF0000" stroke="#000000" d="M577.609,348.976L577.609,348.976v-0.012c-0.004-1.504-0.602-2.941-1.664-4.004  c-1.066-1.062-2.508-1.656-4.008-1.656c-1.504,0.004-2.945,0.602-4.008,1.664s-1.66,2.504-1.66,4.008c0,1.5,0.598,2.941,1.66,4.004  s2.504,1.664,4.008,1.664c1.5,0,2.941-0.594,4.008-1.656c1.062-1.062,1.66-2.5,1.664-4.004V348.976z"/>
<path fill="#FF0000" stroke="#000000" d="M308.488,498.628L308.488,498.628v-0.012c-0.004-1.5-0.602-2.941-1.668-4.004  c-1.066-1.059-2.506-1.656-4.008-1.652c-1.504,0-2.943,0.598-4.006,1.66s-1.658,2.504-1.658,4.008s0.596,2.945,1.658,4.008  s2.502,1.66,4.006,1.66c1.502,0.004,2.941-0.594,4.008-1.652c1.066-1.062,1.664-2.504,1.668-4.004V498.628z"/>
<path fill="#FF0000" stroke="#000000" d="M430.395,474.917L430.395,474.917v-0.012c-0.004-1.504-0.602-2.941-1.668-4.004  c-1.062-1.062-2.504-1.656-4.008-1.656c-1.5,0.004-2.941,0.602-4.004,1.664s-1.66,2.504-1.66,4.008c0,1.5,0.598,2.941,1.66,4.008  c1.062,1.062,2.504,1.66,4.004,1.66c1.504,0,2.945-0.594,4.008-1.656c1.066-1.059,1.664-2.5,1.668-4.004V474.917z"/>
<path fill="#FF0000" stroke="#000000" d="M216.432,569.281L216.432,569.281v-0.008c-0.004-1.504-0.602-2.945-1.666-4.004  c-1.064-1.062-2.506-1.656-4.01-1.656c-1.502,0-2.943,0.598-4.004,1.66c-1.062,1.066-1.66,2.508-1.66,4.008  c0,1.504,0.598,2.945,1.66,4.008c1.061,1.062,2.502,1.66,4.004,1.664c1.504,0,2.945-0.594,4.01-1.656s1.662-2.5,1.666-4.004V569.281  z"/>
<path fill="#FF0000" stroke="#000000" d="M215.273,34.122L215.273,34.122v-0.01c-0.004-1.502-0.602-2.943-1.666-4.004  s-2.506-1.656-4.008-1.656c-1.504,0.002-2.945,0.6-4.006,1.662c-1.062,1.064-1.66,2.506-1.66,4.008s0.598,2.943,1.66,4.008  c1.061,1.062,2.502,1.66,4.006,1.662c1.502,0,2.943-0.594,4.008-1.656c1.064-1.061,1.662-2.5,1.666-4.004V34.122z"/>
<path fill="#FF0000" stroke="#000000" d="M577.699,160.521L577.699,160.521v-0.01c-0.004-1.504-0.602-2.943-1.664-4.004  c-1.066-1.062-2.508-1.656-4.008-1.656c-1.504,0.002-2.945,0.6-4.008,1.662c-1.062,1.064-1.66,2.506-1.66,4.008  s0.598,2.943,1.66,4.008c1.062,1.062,2.504,1.66,4.008,1.662c1.5,0,2.941-0.596,4.008-1.656c1.062-1.061,1.66-2.502,1.664-4.004  V160.521z"/>
<path fill="#FF0000" stroke="#000000" d="M24.748,49.567L24.748,49.567v-0.01c-0.002-1.502-0.602-2.943-1.664-4.004  c-1.064-1.061-2.506-1.656-4.01-1.656c-1.502,0.002-2.943,0.6-4.006,1.664c-1.061,1.062-1.658,2.504-1.658,4.006  s0.598,2.943,1.658,4.008c1.062,1.062,2.504,1.66,4.006,1.662c1.504,0,2.945-0.594,4.01-1.656c1.062-1.061,1.662-2.5,1.664-4.004  V49.567z"/>
<path fill="#FF0000" stroke="#000000" d="M516.453,145.608L516.453,145.608v-0.01c-0.004-1.504-0.602-2.943-1.664-4.006  c-1.066-1.061-2.508-1.656-4.012-1.654c-1.5,0.002-2.941,0.6-4.004,1.662s-1.66,2.504-1.66,4.008c0,1.502,0.598,2.943,1.66,4.006  c1.062,1.064,2.504,1.662,4.004,1.662c1.504,0.002,2.945-0.594,4.012-1.654c1.062-1.061,1.66-2.502,1.664-4.004V145.608z"/>
<path fill="#FF0000" stroke="#000000" d="M124.199,526.207L124.199,526.207v-0.008c-0.002-1.504-0.602-2.945-1.666-4.004  c-1.064-1.062-2.506-1.656-4.008-1.656c-1.504,0-2.943,0.598-4.006,1.66c-1.062,1.066-1.658,2.508-1.658,4.008  c0,1.504,0.596,2.945,1.658,4.008s2.502,1.66,4.006,1.664c1.502,0,2.943-0.598,4.008-1.656c1.064-1.062,1.664-2.504,1.666-4.004  V526.207z"/>
<path fill="#FF0000" stroke="#000000" d="M257.801,80.579L257.801,80.579v-0.01c-0.002-1.502-0.602-2.941-1.666-4.004  c-1.064-1.061-2.506-1.656-4.008-1.654c-1.504,0-2.943,0.598-4.006,1.662c-1.062,1.062-1.658,2.504-1.658,4.006  c0,1.504,0.596,2.945,1.658,4.008s2.502,1.66,4.006,1.662c1.502,0.002,2.943-0.594,4.008-1.654c1.064-1.062,1.664-2.502,1.666-4.006  V80.579z"/>
<path fill="#FF0000" stroke="#000000" d="M350.523,165.026L350.523,165.026v-0.01c0-1.502-0.602-2.943-1.664-4.004  c-1.066-1.062-2.508-1.656-4.008-1.656c-1.504,0.002-2.945,0.6-4.008,1.662c-1.062,1.064-1.656,2.506-1.656,4.008  s0.594,2.943,1.656,4.008c1.062,1.062,2.504,1.66,4.008,1.662c1.5,0,2.941-0.596,4.008-1.656c1.062-1.061,1.664-2.502,1.664-4.004  V165.026z"/>
<path fill="#FF0000" stroke="#000000" d="M154.67,285.774L154.67,285.774v-0.012c-0.002-1.502-0.602-2.941-1.666-4.004  c-1.064-1.061-2.506-1.656-4.008-1.654c-1.504,0.002-2.943,0.6-4.006,1.662s-1.658,2.504-1.658,4.008  c0,1.502,0.596,2.943,1.658,4.006s2.502,1.662,4.006,1.662c1.502,0.002,2.943-0.594,4.008-1.654  c1.064-1.062,1.664-2.502,1.666-4.004V285.774z"/>
<path fill="#FF0000" stroke="#000000" d="M424.961,114.993L424.961,114.993v-0.01c0-1.502-0.602-2.943-1.664-4.004  s-2.508-1.656-4.008-1.654c-1.504,0-2.945,0.598-4.008,1.662c-1.062,1.062-1.656,2.504-1.656,4.006c0,1.504,0.594,2.945,1.656,4.008  s2.504,1.66,4.008,1.662c1.5,0.002,2.945-0.594,4.008-1.654c1.062-1.062,1.664-2.502,1.664-4.006V114.993z"/>
<path fill="#FF0000" stroke="#000000" d="M480.371,450.914L480.371,450.914v-0.008c0-1.504-0.602-2.945-1.664-4.004  c-1.062-1.062-2.504-1.656-4.008-1.656s-2.945,0.598-4.008,1.66c-1.062,1.066-1.656,2.508-1.656,4.008  c0,1.504,0.594,2.945,1.656,4.008s2.504,1.66,4.008,1.664c1.504,0,2.945-0.598,4.008-1.656c1.062-1.062,1.664-2.504,1.664-4.004  V450.914z"/>
<path fill="#FF0000" stroke="#000000" d="M517.828,459.945L517.828,459.945v-0.012c-0.004-1.5-0.602-2.941-1.668-4.004  c-1.062-1.059-2.504-1.656-4.008-1.652c-1.504,0-2.941,0.598-4.004,1.66s-1.66,2.504-1.66,4.008s0.598,2.945,1.66,4.008  s2.5,1.66,4.004,1.66c1.504,0.004,2.945-0.594,4.008-1.656c1.066-1.059,1.664-2.5,1.668-4.004V459.945z"/>
<path fill="#FF0000" stroke="#000000" d="M477.41,267.923L477.41,267.923v-0.01c-0.004-1.504-0.602-2.943-1.664-4.006  c-1.066-1.061-2.508-1.656-4.012-1.654c-1.5,0.002-2.941,0.6-4.004,1.662s-1.66,2.504-1.66,4.008c0,1.502,0.598,2.943,1.66,4.006  c1.062,1.064,2.504,1.662,4.004,1.662c1.504,0.002,2.945-0.594,4.012-1.654c1.062-1.061,1.66-2.502,1.664-4.004V267.923z"/>
<path fill="#FF0000" stroke="#000000" d="M128.143,248.917L128.143,248.917v-0.01c-0.004-1.504-0.602-2.943-1.666-4.004  c-1.064-1.062-2.506-1.656-4.01-1.656c-1.502,0.002-2.943,0.6-4.004,1.662c-1.062,1.064-1.66,2.506-1.66,4.008  s0.598,2.943,1.66,4.008c1.061,1.062,2.502,1.66,4.004,1.662c1.504,0,2.945-0.596,4.01-1.656s1.662-2.502,1.666-4.004V248.917z"/>
<path fill="#FF0000" stroke="#000000" d="M316.594,39.122L316.594,39.122v-0.01c0-1.502-0.602-2.943-1.664-4.004  s-2.504-1.656-4.008-1.654c-1.504,0-2.941,0.598-4.004,1.662c-1.062,1.062-1.664,2.504-1.664,4.006c0,1.504,0.602,2.945,1.664,4.008  s2.5,1.66,4.004,1.662s2.945-0.594,4.008-1.656c1.062-1.061,1.664-2.5,1.664-4.004V39.122z"/>
<path fill="#FF0000" stroke="#000000" d="M46.34,489.562L46.34,489.562v-0.012c-0.002-1.5-0.602-2.941-1.666-4.004  c-1.062-1.059-2.506-1.656-4.008-1.652c-1.502,0-2.943,0.598-4.006,1.66s-1.658,2.504-1.658,4.008s0.596,2.945,1.658,4.008  s2.504,1.66,4.006,1.66c1.502,0.004,2.945-0.594,4.008-1.652c1.064-1.062,1.664-2.504,1.666-4.004V489.562z"/>
<path fill="#FF0000" stroke="#000000" d="M580.246,110.815L580.246,110.815v-0.01c0-1.504-0.602-2.943-1.664-4.004  c-1.062-1.062-2.508-1.658-4.008-1.656c-1.504,0.002-2.945,0.6-4.008,1.662s-1.656,2.504-1.656,4.008  c0,1.502,0.594,2.943,1.656,4.006c1.062,1.064,2.504,1.662,4.008,1.662c1.5,0.002,2.945-0.594,4.008-1.654s1.664-2.502,1.664-4.004  V110.815z"/>
<path fill="#FF0000" stroke="#000000" d="M107.984,452.726L107.984,452.726v-0.012c-0.002-1.5-0.602-2.941-1.666-4.004  c-1.064-1.059-2.506-1.656-4.008-1.652c-1.504,0-2.943,0.598-4.006,1.66s-1.658,2.504-1.658,4.008s0.596,2.945,1.658,4.008  s2.502,1.66,4.006,1.66c1.502,0.004,2.943-0.594,4.008-1.652c1.064-1.062,1.664-2.504,1.666-4.008V452.726z"/>
<path fill="#FF0000" stroke="#000000" d="M426.262,538.078L426.262,538.078v-0.012c-0.004-1.5-0.602-2.941-1.668-4.004  c-1.062-1.059-2.504-1.656-4.008-1.652c-1.5,0-2.941,0.598-4.004,1.66s-1.66,2.504-1.66,4.008s0.598,2.945,1.66,4.008  s2.504,1.66,4.004,1.66c1.504,0.004,2.945-0.594,4.008-1.656c1.066-1.059,1.664-2.5,1.668-4.004V538.078z"/>
<path fill="#FF0000" stroke="#000000" d="M586.66,60.718L586.66,60.718v-0.01c-0.004-1.502-0.602-2.943-1.664-4.004  c-1.066-1.061-2.508-1.656-4.012-1.654c-1.5,0-2.941,0.598-4.004,1.662c-1.062,1.062-1.66,2.504-1.66,4.006  c0,1.504,0.598,2.945,1.66,4.008s2.504,1.66,4.004,1.662c1.504,0.002,2.945-0.594,4.012-1.656c1.062-1.061,1.66-2.5,1.664-4.004  V60.718z"/>
<path fill="#FF0000" stroke="#000000" d="M470,144.718L470,144.718v-0.012c-0.004-1.502-0.602-2.941-1.664-4.004  c-1.066-1.061-2.508-1.656-4.008-1.654c-1.504,0.002-2.945,0.6-4.008,1.662s-1.66,2.504-1.66,4.008c0,1.502,0.598,2.943,1.66,4.006  s2.504,1.662,4.008,1.662c1.5,0.002,2.941-0.594,4.008-1.654c1.062-1.062,1.66-2.502,1.664-4.004V144.718z"/>
<path fill="#FF0000" stroke="#000000" d="M231.279,197.839L231.279,197.839v-0.012c-0.002-1.502-0.602-2.941-1.666-4.004  c-1.062-1.061-2.506-1.656-4.008-1.654s-2.943,0.6-4.006,1.662s-1.658,2.504-1.658,4.008c0,1.502,0.596,2.943,1.658,4.006  s2.504,1.662,4.006,1.662c1.502,0.002,2.945-0.594,4.008-1.654c1.064-1.062,1.664-2.502,1.666-4.004V197.839z"/>
<path fill="#FF0000" stroke="#000000" d="M454.371,310.05L454.371,310.05v-0.008c-0.004-1.504-0.602-2.945-1.668-4.008  c-1.062-1.059-2.504-1.656-4.008-1.652c-1.504,0-2.941,0.598-4.004,1.66s-1.66,2.504-1.66,4.008s0.598,2.945,1.66,4.008  s2.5,1.66,4.004,1.66c1.504,0.004,2.945-0.594,4.008-1.652c1.066-1.062,1.664-2.504,1.668-4.004V310.05z"/>
<path fill="#FF0000" stroke="#000000" d="M57.67,227.659L57.67,227.659v-0.01c-0.002-1.502-0.602-2.943-1.664-4.004  c-1.064-1.061-2.506-1.656-4.01-1.654c-1.502,0-2.943,0.598-4.006,1.662c-1.061,1.062-1.658,2.504-1.658,4.006  c0,1.504,0.598,2.945,1.658,4.008c1.062,1.062,2.504,1.66,4.006,1.662c1.504,0.002,2.945-0.594,4.01-1.656  c1.062-1.061,1.662-2.5,1.664-4.004V227.659z"/>
<path fill="#FF0000" stroke="#000000" d="M207.475,236.739L207.475,236.739v-0.01c-0.004-1.504-0.604-2.943-1.666-4.004  c-1.064-1.062-2.506-1.658-4.01-1.656c-1.502,0.002-2.943,0.6-4.006,1.662c-1.061,1.064-1.658,2.504-1.658,4.008  c0,1.502,0.598,2.943,1.658,4.006c1.062,1.064,2.504,1.662,4.006,1.664c1.504,0,2.945-0.596,4.01-1.656  c1.062-1.061,1.662-2.502,1.666-4.004V236.739z"/>
<path fill="#FF0000" stroke="#000000" d="M261.371,42.599L261.371,42.599v-0.01c-0.004-1.502-0.604-2.943-1.666-4.004  c-1.064-1.061-2.506-1.656-4.01-1.656c-1.502,0.002-2.943,0.6-4.004,1.662c-1.062,1.064-1.66,2.506-1.66,4.008  s0.598,2.943,1.66,4.008c1.061,1.062,2.502,1.66,4.004,1.662c1.504,0,2.945-0.594,4.01-1.656c1.062-1.061,1.662-2.5,1.666-4.004  V42.599z"/>
<path fill="#FF0000" stroke="#000000" d="M137.08,146.729L137.08,146.729v-0.01c-0.002-1.504-0.602-2.943-1.666-4.004  c-1.064-1.062-2.506-1.658-4.008-1.656c-1.504,0.002-2.943,0.6-4.006,1.662s-1.658,2.504-1.658,4.008  c0,1.502,0.596,2.943,1.658,4.006c1.062,1.064,2.502,1.662,4.006,1.662c1.502,0.002,2.943-0.594,4.008-1.654  s1.664-2.502,1.666-4.004V146.729z"/>
<path fill="#FF0000" stroke="#000000" d="M418.824,267.085L418.824,267.085v-0.01c0-1.504-0.602-2.943-1.664-4.004  c-1.062-1.062-2.508-1.658-4.008-1.656c-1.504,0.002-2.945,0.6-4.008,1.662s-1.656,2.504-1.656,4.008  c0,1.502,0.594,2.943,1.656,4.006c1.062,1.064,2.504,1.662,4.008,1.662c1.5,0.002,2.945-0.594,4.008-1.654s1.664-2.502,1.664-4.004  V267.085z"/>
<path fill="#FF0000" stroke="#000000" d="M571.172,451.859L571.172,451.859v-0.012c-0.004-1.5-0.602-2.941-1.668-4.004  c-1.062-1.059-2.504-1.656-4.008-1.652c-1.504,0-2.941,0.598-4.004,1.66s-1.66,2.504-1.66,4.008s0.598,2.945,1.66,4.008  s2.5,1.66,4.004,1.66c1.504,0.004,2.945-0.594,4.008-1.652c1.066-1.062,1.664-2.504,1.668-4.008V451.859z"/>
<path fill="#FF0000" stroke="#000000" d="M115.508,419.175L115.508,419.175v-0.012c-0.002-1.504-0.602-2.941-1.666-4.004  s-2.506-1.656-4.008-1.656c-1.504,0.004-2.943,0.602-4.006,1.664s-1.658,2.504-1.658,4.008c0,1.5,0.596,2.941,1.658,4.004  s2.502,1.664,4.006,1.664c1.502,0,2.943-0.594,4.008-1.656s1.664-2.5,1.666-4.004V419.175z"/>
<path fill="#FF0000" stroke="#000000" d="M327.301,288.032L327.301,288.032v-0.01c-0.004-1.502-0.602-2.943-1.668-4.004  c-1.062-1.062-2.504-1.656-4.008-1.656c-1.504,0.002-2.941,0.6-4.004,1.662c-1.062,1.064-1.66,2.506-1.66,4.008  s0.598,2.943,1.66,4.008c1.062,1.062,2.5,1.66,4.004,1.662c1.504,0,2.945-0.594,4.008-1.656c1.066-1.061,1.664-2.502,1.668-4.004  V288.032z"/>
<path fill="#FF0000" stroke="#000000" d="M24.68,580.812L24.68,580.812V580.8c-0.004-1.5-0.602-2.941-1.666-4.004  s-2.506-1.656-4.008-1.656c-1.504,0.004-2.943,0.602-4.006,1.664s-1.66,2.504-1.66,4.008c0,1.5,0.598,2.941,1.66,4.008  c1.062,1.062,2.502,1.66,4.006,1.66c1.502,0,2.943-0.594,4.008-1.656c1.064-1.059,1.662-2.5,1.666-4.004V580.812z"/>
<path fill="#FF0000" stroke="#000000" d="M367.199,129.944L367.199,129.944v-0.01c0-1.502-0.602-2.943-1.664-4.004  c-1.066-1.062-2.508-1.656-4.008-1.656c-1.504,0.002-2.945,0.6-4.008,1.662c-1.062,1.064-1.656,2.506-1.656,4.008  s0.594,2.943,1.656,4.008c1.062,1.062,2.504,1.66,4.008,1.662c1.5,0,2.941-0.596,4.008-1.656c1.062-1.061,1.664-2.502,1.664-4.004  V129.944z"/>
<path fill="#FF0000" stroke="#000000" d="M77.145,296.222L77.145,296.222v-0.01c-0.004-1.502-0.604-2.943-1.666-4.004  c-1.064-1.061-2.506-1.656-4.01-1.654c-1.502,0-2.943,0.598-4.004,1.662c-1.062,1.062-1.66,2.504-1.66,4.006  c0,1.504,0.598,2.945,1.66,4.008c1.061,1.063,2.502,1.661,4.004,1.661c1.504,0.004,2.945-0.594,4.01-1.653  c1.062-1.062,1.662-2.504,1.666-4.006V296.222z"/>
<path fill="#FF0000" stroke="#000000" d="M253.041,134.485L253.041,134.485v-0.01c-0.002-1.504-0.602-2.943-1.664-4.004  c-1.064-1.062-2.506-1.656-4.01-1.656c-1.502,0.002-2.943,0.6-4.006,1.662c-1.061,1.064-1.658,2.506-1.658,4.008  s0.598,2.943,1.658,4.008c1.062,1.062,2.504,1.66,4.006,1.662c1.504,0,2.945-0.596,4.01-1.656c1.062-1.061,1.662-2.502,1.664-4.004  V134.485z"/>
<path fill="#FF0000" stroke="#000000" d="M160.705,84.585L160.705,84.585v-0.012c-0.002-1.502-0.602-2.941-1.664-4.004  c-1.064-1.061-2.506-1.656-4.01-1.654c-1.502,0.002-2.943,0.6-4.006,1.662c-1.061,1.062-1.658,2.504-1.658,4.008  c0,1.502,0.598,2.943,1.658,4.006c1.062,1.062,2.504,1.662,4.006,1.662c1.504,0.002,2.945-0.594,4.01-1.654  c1.062-1.062,1.662-2.502,1.664-4.004V84.585z"/>
<path fill="#FF0000" stroke="#000000" d="M38.254,395.265L38.254,395.265v-0.008c-0.002-1.504-0.602-2.945-1.666-4.004  c-1.064-1.062-2.506-1.656-4.008-1.656c-1.504,0-2.943,0.598-4.006,1.66c-1.062,1.066-1.658,2.508-1.658,4.008  c0,1.504,0.596,2.945,1.658,4.008s2.502,1.66,4.006,1.664c1.502,0,2.943-0.598,4.008-1.656c1.064-1.062,1.664-2.504,1.666-4.004  V395.265z"/>
<path fill="#FF0000" stroke="#000000" d="M408.266,288.796L408.266,288.796v-0.01c-0.004-1.502-0.602-2.943-1.668-4.004  c-1.062-1.061-2.504-1.656-4.008-1.656c-1.5,0.002-2.941,0.6-4.004,1.662c-1.062,1.064-1.66,2.506-1.66,4.008  s0.598,2.943,1.66,4.008c1.062,1.062,2.504,1.66,4.004,1.662c1.504,0,2.945-0.594,4.008-1.656c1.066-1.061,1.664-2.502,1.668-4.004  V288.796z"/>
<path fill="#FF0000" stroke="#000000" d="M163.922,348.332L163.922,348.332v-0.008c-0.002-1.504-0.602-2.945-1.666-4.004  c-1.064-1.062-2.506-1.656-4.008-1.656c-1.504,0-2.943,0.598-4.006,1.664c-1.062,1.062-1.658,2.504-1.658,4.004  c0,1.504,0.596,2.945,1.658,4.008s2.502,1.66,4.006,1.664c1.502,0,2.943-0.594,4.008-1.656s1.664-2.5,1.666-4.004V348.332z"/>
<path fill="#FF0000" stroke="#000000" d="M415.039,398.386L415.039,398.386v-0.012c-0.004-1.504-0.602-2.941-1.664-4.004  c-1.066-1.062-2.508-1.656-4.012-1.656c-1.5,0.004-2.941,0.602-4.004,1.664s-1.66,2.504-1.66,4.008c0,1.5,0.598,2.941,1.66,4.008  c1.062,1.062,2.504,1.66,4.004,1.66c1.504,0,2.945-0.594,4.012-1.656c1.062-1.059,1.66-2.5,1.664-4.004V398.386z"/>
<path fill="#FF0000" stroke="#000000" d="M61.176,321.542L61.176,321.542v-0.008c-0.004-1.504-0.604-2.945-1.666-4.004  c-1.064-1.062-2.506-1.656-4.01-1.656c-1.502,0-2.943,0.598-4.006,1.664c-1.061,1.062-1.658,2.504-1.658,4.004  c0,1.504,0.598,2.945,1.658,4.008c1.062,1.062,2.504,1.66,4.006,1.664c1.504,0,2.945-0.594,4.01-1.656  c1.062-1.062,1.662-2.5,1.666-4.004V321.542z"/>
<path fill="#FF0000" stroke="#000000" d="M137.248,506.066L137.248,506.066v-0.008c-0.004-1.504-0.602-2.945-1.666-4.004  c-1.064-1.062-2.506-1.656-4.01-1.656c-1.502,0-2.943,0.598-4.004,1.66c-1.062,1.066-1.66,2.504-1.66,4.008s0.598,2.945,1.66,4.008  c1.061,1.062,2.502,1.66,4.004,1.664c1.504,0,2.945-0.598,4.01-1.656c1.064-1.062,1.662-2.504,1.666-4.004V506.066z"/>
<path fill="#FF0000" stroke="#000000" d="M529.602,395.367L529.602,395.367v-0.012c0-1.5-0.602-2.941-1.664-4.004  c-1.062-1.059-2.508-1.656-4.008-1.652c-1.504,0-2.945,0.598-4.008,1.66s-1.656,2.504-1.656,4.008s0.594,2.945,1.656,4.008  s2.504,1.66,4.008,1.66c1.5,0.004,2.945-0.594,4.008-1.652c1.062-1.062,1.664-2.504,1.664-4.004V395.367z"/>
<path fill="#FF0000" stroke="#000000" d="M188.506,277.462L188.506,277.462v-0.01c-0.002-1.504-0.602-2.943-1.664-4.004  c-1.064-1.062-2.506-1.658-4.01-1.656c-1.502,0.002-2.943,0.6-4.006,1.662c-1.061,1.062-1.658,2.504-1.658,4.008  c0,1.502,0.598,2.943,1.658,4.006c1.062,1.064,2.504,1.662,4.006,1.662c1.504,0.002,2.945-0.594,4.01-1.654  c1.062-1.061,1.662-2.502,1.664-4.004V277.462z"/>
<path fill="#FF0000" stroke="#000000" d="M415.891,202.208L415.891,202.208v-0.01c-0.004-1.502-0.605-2.943-1.668-4.004  s-2.504-1.656-4.008-1.654c-1.504,0-2.945,0.598-4.004,1.662c-1.062,1.062-1.66,2.504-1.66,4.006c0,1.504,0.598,2.945,1.66,4.008  c1.059,1.062,2.5,1.66,4.004,1.662s2.945-0.594,4.008-1.656c1.062-1.061,1.664-2.5,1.668-4.004V202.208z"/>
<path fill="#FF0000" stroke="#000000" d="M264.799,376.277L264.799,376.277v-0.008c-0.002-1.504-0.602-2.945-1.666-4.008  c-1.064-1.059-2.506-1.656-4.008-1.652c-1.504,0-2.943,0.598-4.006,1.66s-1.658,2.504-1.658,4.008s0.596,2.945,1.658,4.008  s2.502,1.66,4.006,1.66c1.502,0.004,2.943-0.594,4.008-1.652c1.064-1.062,1.664-2.504,1.666-4.004V376.277z"/>
<path fill="#FF0000" stroke="#000000" d="M315.715,257.173L315.715,257.173v-0.01c-0.004-1.504-0.602-2.943-1.664-4.004  c-1.062-1.062-2.508-1.656-4.008-1.656c-1.504,0.002-2.945,0.6-4.008,1.662c-1.062,1.064-1.658,2.506-1.658,4.008  s0.596,2.943,1.658,4.008c1.062,1.062,2.504,1.66,4.008,1.662c1.5,0,2.945-0.596,4.008-1.656s1.66-2.502,1.664-4.004V257.173z"/>
<path fill="#FF0000" stroke="#000000" d="M379.551,544.093L379.551,544.093v-0.012c0-1.504-0.602-2.941-1.664-4.004  s-2.508-1.656-4.008-1.656c-1.504,0.004-2.945,0.602-4.008,1.664s-1.656,2.504-1.656,4.008c0,1.5,0.594,2.941,1.656,4.004  c1.062,1.066,2.504,1.664,4.008,1.664c1.5,0,2.945-0.594,4.008-1.656c1.062-1.059,1.664-2.5,1.664-4.004V544.093z"/>
<path fill="#FF0000" stroke="#000000" d="M42.818,159.552L42.818,159.552v-0.01c-0.002-1.502-0.602-2.943-1.666-4.004  s-2.506-1.656-4.008-1.656c-1.504,0.002-2.943,0.6-4.006,1.664c-1.062,1.062-1.658,2.504-1.658,4.006  c0,1.504,0.596,2.943,1.658,4.008c1.062,1.062,2.502,1.66,4.006,1.662c1.502,0,2.943-0.594,4.008-1.656  c1.064-1.061,1.664-2.5,1.666-4.004V159.552z"/>
<path fill="#FF0000" stroke="#000000" d="M411.648,354.828L411.648,354.828v-0.008c-0.004-1.504-0.602-2.941-1.668-4.004  c-1.062-1.062-2.504-1.656-4.008-1.656c-1.5,0-2.941,0.602-4.004,1.664s-1.66,2.504-1.66,4.004c0,1.504,0.598,2.945,1.66,4.008  s2.504,1.66,4.004,1.664c1.504,0,2.945-0.594,4.008-1.656c1.066-1.062,1.664-2.5,1.668-4.004V354.828z"/>
<path fill="#FF0000" stroke="#000000" d="M277.439,432.753L277.439,432.753v-0.008c-0.004-1.504-0.604-2.945-1.666-4.004  c-1.064-1.062-2.506-1.656-4.01-1.656c-1.502,0-2.943,0.598-4.004,1.66c-1.062,1.066-1.66,2.508-1.66,4.008  c0,1.504,0.598,2.945,1.66,4.008c1.061,1.062,2.502,1.66,4.004,1.664c1.504,0,2.945-0.598,4.01-1.656  c1.062-1.062,1.662-2.504,1.666-4.004V432.753z"/>
<path fill="#FF0000" stroke="#000000" d="M173.1,565.976L173.1,565.976v-0.012c-0.002-1.5-0.602-2.941-1.666-4.004  c-1.062-1.059-2.506-1.656-4.008-1.652c-1.502,0-2.943,0.598-4.006,1.66s-1.658,2.504-1.658,4.008s0.596,2.945,1.658,4.008  s2.504,1.66,4.006,1.66c1.502,0.004,2.945-0.594,4.008-1.652c1.064-1.062,1.664-2.504,1.666-4.008V565.976z"/>
<path fill="#FF0000" stroke="#000000" d="M218.422,60.479L218.422,60.479v-0.01c-0.004-1.504-0.602-2.943-1.666-4.004  c-1.064-1.062-2.506-1.658-4.008-1.656c-1.504,0.002-2.943,0.6-4.006,1.662s-1.66,2.504-1.66,4.008c0,1.502,0.598,2.943,1.66,4.006  c1.062,1.064,2.502,1.662,4.006,1.662c1.502,0.002,2.943-0.594,4.008-1.654s1.662-2.502,1.666-4.004V60.479z"/>
<path fill="#FF0000" stroke="#000000" d="M406.117,227.944L406.117,227.944v-0.01c-0.004-1.504-0.602-2.943-1.668-4.004  c-1.062-1.062-2.504-1.658-4.008-1.656c-1.5,0.002-2.941,0.6-4.004,1.662s-1.66,2.504-1.66,4.008c0,1.502,0.598,2.943,1.66,4.006  c1.062,1.064,2.504,1.662,4.004,1.662c1.504,0.002,2.945-0.594,4.008-1.654c1.066-1.061,1.664-2.502,1.668-4.004V227.944z"/>
<path fill="#FF0000" stroke="#000000" d="M552.234,565.265L552.234,565.265v-0.008c-0.004-1.504-0.602-2.945-1.664-4.004  c-1.066-1.062-2.508-1.656-4.012-1.656c-1.5,0-2.941,0.598-4.004,1.66c-1.062,1.066-1.66,2.504-1.66,4.008s0.598,2.945,1.66,4.008  s2.504,1.66,4.004,1.664c1.504,0,2.945-0.598,4.012-1.656c1.062-1.062,1.66-2.504,1.664-4.004V565.265z"/>
<path fill="#FF0000" stroke="#000000" d="M364.34,476.062L364.34,476.062v-0.012c-0.004-1.5-0.602-2.941-1.664-4.004  c-1.066-1.059-2.508-1.656-4.008-1.652c-1.504,0-2.945,0.598-4.008,1.66s-1.66,2.504-1.66,4.008s0.598,2.945,1.66,4.008  s2.504,1.66,4.008,1.66c1.5,0.004,2.941-0.594,4.008-1.652c1.062-1.062,1.66-2.504,1.664-4.004V476.062z"/>
<path fill="#FF0000" stroke="#000000" d="M65.584,412.058L65.584,412.058v-0.008c-0.002-1.504-0.602-2.941-1.666-4.004  c-1.062-1.062-2.506-1.656-4.008-1.656s-2.943,0.598-4.006,1.664c-1.062,1.062-1.658,2.504-1.658,4.004  c0,1.504,0.596,2.945,1.658,4.008s2.504,1.66,4.006,1.664c1.502,0,2.945-0.594,4.008-1.656c1.064-1.062,1.664-2.5,1.666-4.004  V412.058z"/>
<path fill="#FF0000" stroke="#000000" d="M467.355,559.683L467.355,559.683v-0.008c-0.004-1.504-0.602-2.945-1.668-4.004  c-1.062-1.062-2.504-1.66-4.008-1.656c-1.504,0-2.945,0.598-4.004,1.66c-1.062,1.062-1.66,2.504-1.66,4.008s0.598,2.945,1.66,4.008  c1.059,1.062,2.5,1.66,4.004,1.66c1.504,0.004,2.945-0.594,4.008-1.652c1.066-1.062,1.664-2.504,1.668-4.004V559.683z"/>
<path fill="#FF0000" stroke="#000000" d="M471.406,389.277L471.406,389.277v-0.008c0-1.504-0.602-2.941-1.664-4.004  c-1.066-1.062-2.508-1.656-4.008-1.656c-1.504,0-2.945,0.602-4.008,1.664s-1.656,2.504-1.656,4.004c0,1.504,0.594,2.945,1.656,4.008  s2.504,1.66,4.008,1.664c1.5,0,2.941-0.594,4.008-1.656c1.062-1.062,1.664-2.5,1.664-4.004V389.277z"/>
<path fill="#FF0000" stroke="#000000" d="M79.266,498.417L79.266,498.417v-0.008c-0.002-1.504-0.602-2.941-1.666-4.004  s-2.506-1.656-4.008-1.656c-1.504,0-2.943,0.602-4.006,1.664s-1.658,2.504-1.658,4.004c0,1.504,0.596,2.945,1.658,4.008  s2.502,1.66,4.006,1.664c1.502,0,2.943-0.594,4.008-1.656s1.664-2.5,1.666-4.004V498.417z"/>
<path fill="#FF0000" stroke="#000000" d="M183.861,97.167L183.861,97.167v-0.01c-0.004-1.504-0.602-2.943-1.666-4.004  c-1.064-1.062-2.506-1.658-4.01-1.656c-1.502,0.002-2.943,0.6-4.004,1.662c-1.062,1.062-1.66,2.504-1.66,4.008  c0,1.502,0.598,2.943,1.66,4.006c1.061,1.064,2.502,1.662,4.004,1.662c1.504,0.002,2.945-0.594,4.01-1.654s1.662-2.502,1.666-4.004  V97.167z"/>
<path fill="#FF0000" stroke="#000000" d="M334.305,209.976L334.305,209.976v-0.01c-0.004-1.502-0.602-2.943-1.668-4.004  c-1.062-1.061-2.504-1.656-4.008-1.654c-1.504,0-2.941,0.598-4.004,1.662c-1.062,1.062-1.66,2.504-1.66,4.006  c0,1.504,0.598,2.945,1.66,4.008s2.5,1.66,4.004,1.662s2.945-0.594,4.008-1.656c1.066-1.061,1.664-2.5,1.668-4.004V209.976z"/>
<path fill="#FF0000" stroke="#000000" d="M255.309,285.552L255.309,285.552v-0.01c-0.002-1.504-0.602-2.943-1.666-4.004  c-1.064-1.062-2.506-1.656-4.008-1.656c-1.504,0.002-2.943,0.6-4.006,1.662c-1.062,1.064-1.658,2.504-1.658,4.008  c0,1.502,0.596,2.943,1.658,4.006c1.062,1.064,2.502,1.662,4.006,1.664c1.502,0,2.943-0.596,4.008-1.656s1.664-2.502,1.666-4.004  V285.552z"/>
<path fill="#FF0000" stroke="#000000" d="M463.754,496.667L463.754,496.667v-0.008c0-1.504-0.602-2.941-1.664-4.004  c-1.066-1.062-2.508-1.656-4.008-1.656c-1.504,0-2.945,0.598-4.008,1.664c-1.062,1.062-1.656,2.504-1.656,4.004  c0,1.504,0.594,2.945,1.656,4.008s2.504,1.66,4.008,1.664c1.5,0,2.941-0.594,4.008-1.656c1.062-1.062,1.664-2.5,1.664-4.004V496.667  z"/>
<path fill="#FF0000" stroke="#000000" d="M398.414,90.505L398.414,90.505v-0.01c-0.004-1.502-0.602-2.943-1.668-4.004  c-1.062-1.061-2.504-1.656-4.008-1.656c-1.504,0.002-2.941,0.6-4.004,1.662c-1.062,1.064-1.66,2.506-1.66,4.008  s0.598,2.943,1.66,4.008c1.062,1.062,2.5,1.66,4.004,1.662c1.504,0,2.945-0.594,4.008-1.656c1.066-1.061,1.664-2.5,1.668-4.004  V90.505z"/>
<path fill="#FF0000" stroke="#000000" d="M223.215,119.851L223.215,119.851v-0.01c-0.002-1.502-0.602-2.941-1.666-4.004  c-1.062-1.061-2.506-1.656-4.008-1.654c-1.502,0-2.943,0.598-4.006,1.662c-1.062,1.062-1.658,2.504-1.658,4.006  c0,1.504,0.596,2.945,1.658,4.008s2.504,1.66,4.006,1.662s2.945-0.594,4.008-1.654c1.064-1.062,1.664-2.502,1.666-4.006V119.851z"/>
<path fill="#FF0000" stroke="#000000" d="M395.848,572.957L395.848,572.957v-0.008c-0.004-1.504-0.602-2.945-1.668-4.004  c-1.062-1.062-2.504-1.66-4.008-1.656c-1.504,0-2.945,0.598-4.004,1.66c-1.062,1.062-1.66,2.504-1.66,4.008s0.598,2.945,1.66,4.008  c1.059,1.062,2.5,1.66,4.004,1.66c1.504,0.004,2.945-0.594,4.008-1.652c1.066-1.062,1.664-2.504,1.668-4.004V572.957z"/>
<path fill="#FF0000" stroke="#000000" d="M289.383,556.687L289.383,556.687v-0.012c-0.002-1.504-0.602-2.941-1.666-4.004  c-1.062-1.062-2.506-1.656-4.008-1.656c-1.502,0.004-2.943,0.602-4.006,1.664s-1.658,2.504-1.658,4.008  c0,1.5,0.596,2.941,1.658,4.008c1.062,1.062,2.504,1.66,4.006,1.66s2.945-0.594,4.008-1.656c1.064-1.059,1.664-2.5,1.666-4.004  V556.687z"/>
<path fill="#FF0000" stroke="#000000" d="M200.365,128.71L200.365,128.71v-0.01c-0.002-1.502-0.602-2.943-1.666-4.004  s-2.506-1.656-4.008-1.654c-1.504,0-2.943,0.598-4.006,1.662c-1.062,1.062-1.658,2.504-1.658,4.006c0,1.504,0.596,2.945,1.658,4.008  s2.502,1.66,4.006,1.662c1.502,0.002,2.943-0.594,4.008-1.654c1.064-1.062,1.664-2.502,1.666-4.006V128.71z"/>
<path fill="#FF0000" stroke="#000000" d="M93.918,262.091L93.918,262.091v-0.01c-0.004-1.502-0.602-2.941-1.666-4.004  c-1.064-1.061-2.506-1.656-4.01-1.654c-1.502,0-2.943,0.6-4.004,1.662c-1.062,1.062-1.66,2.504-1.66,4.006  c0,1.504,0.598,2.945,1.66,4.008c1.061,1.062,2.502,1.66,4.004,1.662c1.504,0.002,2.945-0.594,4.01-1.654  c1.064-1.062,1.662-2.502,1.666-4.004V262.091z"/>
<path fill="#FF0000" stroke="#000000" d="M54.945,520.355L54.945,520.355v-0.012c-0.002-1.504-0.602-2.941-1.666-4.004  c-1.062-1.062-2.504-1.656-4.008-1.656c-1.502,0.004-2.943,0.602-4.006,1.664s-1.658,2.504-1.658,4.008  c0,1.5,0.596,2.941,1.658,4.004c1.062,1.066,2.504,1.664,4.006,1.664c1.504,0,2.945-0.594,4.008-1.656  c1.064-1.059,1.664-2.5,1.666-4.004V520.355z"/>
<path fill="#FF0000" stroke="#000000" d="M121.5,49.661L121.5,49.661v-0.012c-0.002-1.502-0.602-2.941-1.664-4.004  c-1.064-1.061-2.506-1.656-4.01-1.654c-1.502,0.002-2.943,0.6-4.006,1.662s-1.658,2.504-1.658,4.008  c0,1.502,0.596,2.943,1.658,4.006s2.504,1.662,4.006,1.662c1.504,0.002,2.945-0.594,4.01-1.654c1.062-1.062,1.662-2.502,1.664-4.004  V49.661z"/>
<path fill="#FF0000" stroke="#000000" d="M197.887,459.882L197.887,459.882v-0.012c-0.002-1.5-0.602-2.941-1.666-4.004  c-1.064-1.059-2.506-1.656-4.008-1.652c-1.502,0-2.943,0.598-4.006,1.66s-1.658,2.504-1.658,4.008s0.596,2.945,1.658,4.008  s2.504,1.66,4.006,1.66c1.502,0.004,2.943-0.594,4.008-1.656c1.064-1.059,1.664-2.5,1.666-4.004V459.882z"/>
<path fill="#FF0000" stroke="#000000" d="M56.178,457.863L56.178,457.863v-0.012c-0.002-1.5-0.602-2.941-1.666-4.004  c-1.064-1.059-2.506-1.656-4.008-1.656c-1.504,0.004-2.943,0.602-4.006,1.664s-1.658,2.504-1.658,4.008s0.596,2.941,1.658,4.008  c1.062,1.062,2.502,1.66,4.006,1.66c1.502,0,2.943-0.594,4.008-1.656c1.064-1.059,1.664-2.5,1.666-4.004V457.863z"/>
<path fill="#FF0000" stroke="#000000" d="M159.812,19.19L159.812,19.19v-0.01c-0.002-1.504-0.602-2.943-1.666-4.004  c-1.064-1.062-2.506-1.658-4.008-1.656c-1.504,0.002-2.943,0.6-4.006,1.662s-1.658,2.504-1.658,4.008  c0,1.502,0.596,2.943,1.658,4.006c1.062,1.064,2.502,1.662,4.006,1.662c1.502,0.002,2.943-0.594,4.008-1.654  s1.664-2.502,1.666-4.004V19.19z"/>
<path fill="#FF0000" stroke="#000000" d="M533.074,268.712L533.074,268.712V268.7c-0.004-1.502-0.602-2.941-1.664-4.004  c-1.066-1.061-2.508-1.656-4.012-1.654c-1.5,0-2.941,0.6-4.004,1.662s-1.66,2.504-1.66,4.008c0,1.502,0.598,2.943,1.66,4.006  s2.504,1.662,4.004,1.662c1.504,0.002,2.945-0.594,4.012-1.654c1.062-1.062,1.66-2.502,1.664-4.004V268.712z"/>
<path fill="#FF0000" stroke="#000000" d="M550.52,219.86L550.52,219.86v-0.01c-0.004-1.502-0.602-2.943-1.664-4.004  c-1.066-1.061-2.508-1.656-4.012-1.654c-1.5,0-2.941,0.598-4.004,1.662c-1.062,1.062-1.66,2.504-1.66,4.006  c0,1.504,0.598,2.945,1.66,4.008s2.504,1.66,4.004,1.662c1.504,0.002,2.945-0.594,4.012-1.656c1.062-1.061,1.66-2.5,1.664-4.004  V219.86z"/>
<path fill="#FF0000" stroke="#000000" d="M113.154,167.427L113.154,167.427v-0.01c-0.004-1.504-0.602-2.943-1.666-4.004  c-1.064-1.062-2.506-1.656-4.01-1.656c-1.502,0.002-2.943,0.6-4.004,1.662c-1.062,1.064-1.66,2.504-1.66,4.008  c0,1.502,0.598,2.943,1.66,4.006c1.061,1.064,2.502,1.662,4.004,1.664c1.504,0,2.945-0.596,4.01-1.656s1.662-2.502,1.666-4.004  V167.427z"/>
<path fill="#FF0000" stroke="#000000" d="M504.277,574.425L504.277,574.425v-0.012c-0.004-1.504-0.602-2.941-1.668-4.004  c-1.062-1.062-2.504-1.656-4.008-1.656c-1.504,0.004-2.945,0.602-4.004,1.664c-1.062,1.062-1.66,2.504-1.66,4.008  c0,1.5,0.598,2.941,1.66,4.004c1.059,1.066,2.5,1.664,4.004,1.664s2.945-0.594,4.008-1.656c1.066-1.059,1.664-2.5,1.668-4.004  V574.425z"/>
<path fill="#FF0000" stroke="#000000" d="M92.131,432.238L92.131,432.238v-0.012c-0.002-1.5-0.602-2.941-1.666-4.004  c-1.062-1.059-2.504-1.656-4.008-1.656c-1.502,0.004-2.943,0.602-4.006,1.664s-1.658,2.504-1.658,4.008  c0,1.5,0.596,2.941,1.658,4.008c1.062,1.062,2.504,1.66,4.006,1.66c1.504,0,2.945-0.594,4.008-1.656  c1.064-1.059,1.664-2.5,1.666-4.004V432.238z"/>
<path fill="#FF0000" stroke="#000000" d="M150.533,372.785L150.533,372.785v-0.012c-0.002-1.5-0.602-2.941-1.666-4.004  c-1.062-1.062-2.506-1.656-4.008-1.656c-1.502,0.004-2.943,0.602-4.006,1.664s-1.658,2.504-1.658,4.008  c0,1.5,0.596,2.941,1.658,4.008c1.062,1.062,2.504,1.66,4.006,1.66s2.945-0.594,4.008-1.656c1.064-1.059,1.664-2.5,1.666-4.004  V372.785z"/>
<path fill="#FF0000" stroke="#000000" d="M513.188,64.468L513.188,64.468v-0.01c-0.004-1.502-0.602-2.943-1.664-4.004  c-1.066-1.061-2.508-1.656-4.012-1.654c-1.5,0-2.941,0.598-4.004,1.662c-1.062,1.062-1.66,2.504-1.66,4.006  c0,1.504,0.598,2.945,1.66,4.008s2.504,1.66,4.004,1.662c1.504,0.002,2.945-0.594,4.012-1.656c1.062-1.061,1.66-2.5,1.664-4.004  V64.468z"/>
<path fill="#FF0000" stroke="#000000" d="M84.271,565.535L84.271,565.535v-0.008c-0.002-1.504-0.602-2.945-1.666-4.004  c-1.062-1.062-2.504-1.656-4.008-1.656c-1.502,0-2.943,0.598-4.006,1.664c-1.062,1.062-1.658,2.504-1.658,4.004  c0,1.504,0.596,2.945,1.658,4.008s2.504,1.66,4.006,1.664c1.504,0,2.945-0.594,4.008-1.656c1.064-1.062,1.664-2.5,1.666-4.004  V565.535z"/>
<path fill="#FF0000" stroke="#000000" d="M540.73,66.56L540.73,66.56v-0.01c0-1.502-0.602-2.941-1.664-4.004  c-1.066-1.061-2.508-1.656-4.008-1.654c-1.504,0-2.945,0.598-4.008,1.662c-1.062,1.062-1.656,2.504-1.656,4.006  c0,1.504,0.594,2.945,1.656,4.008s2.504,1.66,4.008,1.662c1.5,0.002,2.941-0.594,4.008-1.654c1.062-1.062,1.664-2.502,1.664-4.006  V66.56z"/>
<path fill="#FF0000" stroke="#000000" d="M231.408,356.015L231.408,356.015v-0.008c-0.002-1.504-0.602-2.945-1.666-4.004  c-1.062-1.062-2.506-1.656-4.008-1.656s-2.943,0.598-4.006,1.664c-1.062,1.062-1.658,2.504-1.658,4.004  c0,1.504,0.596,2.945,1.658,4.008s2.504,1.66,4.006,1.664c1.502,0,2.945-0.594,4.008-1.656c1.064-1.062,1.664-2.5,1.666-4.004  V356.015z"/>
<path fill="#FF0000" stroke="#000000" d="M475.188,225.954L475.188,225.954v-0.01c0-1.504-0.602-2.943-1.664-4.006  c-1.062-1.061-2.504-1.656-4.008-1.654s-2.945,0.6-4.008,1.662c-1.059,1.062-1.656,2.504-1.656,4.008  c0,1.502,0.598,2.943,1.656,4.006c1.062,1.064,2.504,1.662,4.008,1.662c1.504,0.002,2.945-0.594,4.008-1.654  s1.664-2.502,1.664-4.004V225.954z"/>
<path fill="#FF0000" stroke="#000000" d="M315.621,174.142L315.621,174.142v-0.01c-0.004-1.502-0.602-2.941-1.668-4.004  c-1.062-1.061-2.504-1.656-4.004-1.654c-1.508,0-2.945,0.6-4.008,1.662s-1.66,2.504-1.66,4.006c0,1.504,0.598,2.945,1.66,4.008  s2.5,1.66,4.008,1.662c1.5,0.002,2.941-0.594,4.004-1.654c1.066-1.062,1.664-2.502,1.668-4.006V174.142z"/>
<path fill="#FF0000" stroke="#000000" d="M532.25,189.271L532.25,189.271v-0.01c0-1.502-0.602-2.943-1.664-4.004  s-2.508-1.656-4.008-1.656c-1.504,0.002-2.945,0.6-4.008,1.664c-1.062,1.062-1.656,2.504-1.656,4.006  c0,1.504,0.594,2.943,1.656,4.008c1.062,1.062,2.504,1.66,4.008,1.662c1.5,0,2.945-0.594,4.008-1.656  c1.062-1.061,1.664-2.5,1.664-4.004V189.271z"/>
<path fill="#FF0000" stroke="#000000" d="M137.094,227.942L137.094,227.942v-0.01c-0.002-1.502-0.602-2.943-1.666-4.004  c-1.062-1.061-2.506-1.656-4.008-1.654c-1.502,0-2.943,0.598-4.006,1.662c-1.062,1.062-1.658,2.504-1.658,4.006  c0,1.504,0.596,2.945,1.658,4.008s2.504,1.66,4.006,1.662s2.945-0.594,4.008-1.656c1.064-1.061,1.664-2.5,1.666-4.004V227.942z"/>
<path fill="#FF0000" stroke="#000000" d="M38.734,357.148L38.734,357.148v-0.008c-0.002-1.504-0.602-2.945-1.666-4.004  c-1.062-1.062-2.506-1.656-4.008-1.656s-2.943,0.598-4.006,1.664c-1.062,1.062-1.658,2.504-1.658,4.004  c0,1.504,0.596,2.945,1.658,4.008s2.504,1.66,4.006,1.664c1.502,0,2.945-0.594,4.008-1.656c1.064-1.062,1.664-2.5,1.666-4.004  V357.148z"/>
<rect fill="none" width="600" height="600"/>
</svg>